<?xml version="1.0" encoding="utf-8"?>
<!-- Generator: Adobe Illustrator 20.1.0, SVG Export Plug-In . SVG Version: 6.00 Build 0)  -->
<svg version="1.1" id="Warstwa_1" xmlns="http://www.w3.org/2000/svg" xmlns:xlink="http://www.w3.org/1999/xlink" x="0px" y="0px"
	 viewBox="0 0 134.6 79.4" style="enable-background:new 0 0 134.6 79.4;" xml:space="preserve">
<path style="fill:none;stroke:#2347F7;stroke-miterlimit:10;" d="M116,12.3"/>
<path style="fill:none;stroke:#2347F7;stroke-miterlimit:10;" d="M25.7,72.9c-0.9-1.1-1.5-2.5-1.5-4.1V18.7c0-3.5,2.9-6.4,6.4-6.4
	h63"/>
<path style="fill:none;stroke:#2347F7;stroke-miterlimit:10;" d="M30.6,75.2"/>
<path style="fill:none;stroke:#2347F7;stroke-miterlimit:10;" d="M122.4,37.2v31.6c0,1.6-0.5,3-1.5,4.1"/>
<path style="fill:none;stroke:#2347F7;stroke-miterlimit:10;" d="M122.4,18.7"/>
<path style="fill:none;stroke:#2347F7;stroke-miterlimit:10;" d="M112.2,15.6"/>
<path style="fill:none;stroke:#2347F7;stroke-miterlimit:10;" d="M118.6,42.6v20.1c0,3.5-2.9,6.4-6.4,6.4H34.3
	c-3.5,0-6.4-2.9-6.4-6.4V20.5c0-2.7,2.2-4.8,4.8-4.8H94"/>
<path style="fill:none;stroke:#2347F7;stroke-miterlimit:10;" d="M118.6,22"/>
<path style="fill:none;stroke:#2347F7;stroke-miterlimit:10;" d="M129.6,72.9H16.9c-1.7,0-3,1.3-3,3v0c0,1.7,1.3,3,3,3h112.7
	c1.7,0,3-1.3,3-3v0C132.6,74.3,131.3,72.9,129.6,72.9z"/>
<path style="opacity:0.3;fill:#FFFFFF;stroke:#2347F7;stroke-miterlimit:10;" d="M91.6,75.9H54.9c-0.8,0-1.5-0.7-1.5-1.5v0
	c0-0.8,0.7-1.5,1.5-1.5h36.7c0.8,0,1.5,0.7,1.5,1.5v0C93.1,75.3,92.4,75.9,91.6,75.9z"/>
<path style="fill:none;stroke:#2347F7;stroke-miterlimit:10;" d="M91.6,75.9H54.9c-0.8,0-1.5-0.7-1.5-1.5v0c0-0.8,0.7-1.5,1.5-1.5
	h36.7c0.8,0,1.5,0.7,1.5,1.5v0C93.1,75.3,92.4,75.9,91.6,75.9z"/>
<line style="fill:none;stroke:#2347F7;stroke-miterlimit:10;" x1="37.5" y1="27.2" x2="71.5" y2="27.2"/>
<line style="fill:none;stroke:#2347F7;stroke-miterlimit:10;" x1="37.5" y1="35.2" x2="76.5" y2="35.2"/>
<g>
	<line style="fill:none;stroke:#2347F7;stroke-miterlimit:10;" x1="5.2" y1="10" x2="5.2" y2="19.4"/>
	<line style="fill:none;stroke:#2347F7;stroke-miterlimit:10;" x1="9.9" y1="14.7" x2="0.5" y2="14.7"/>
</g>
<g>
	<line style="fill:none;stroke:#2347F7;stroke-miterlimit:10;" x1="12.9" y1="30.9" x2="12.9" y2="36.5"/>
	<line style="fill:none;stroke:#2347F7;stroke-miterlimit:10;" x1="15.7" y1="33.7" x2="10.1" y2="33.7"/>
</g>
<g>
	<path style="fill:none;stroke:#2347F7;stroke-miterlimit:10;" d="M131,20.3l3.1-0.8l-2-7.3l-3.6,1c-1-1.8-2.2-3.3-3.5-4.4l1.8-3.4
		l-6.7-3.9l-1.8,3.2c-2-0.6-4.3-1-6.4-0.9L111,0.5l-6.9,1.9l0.9,3.2c-2.8,1.2-4,2.4-5.4,4l-3.4-1.8l-3.9,6.7l3.3,2.2
		c-0.5,1.7-0.9,3.5-0.8,5.6l-3.9,1.1l2,7.3l3.4-0.9c1,2.3,2.5,4.2,4.4,5.8l-1.9,3.1l6.7,3.8l2.2-3.4c2,0.6,3.7,1.1,6.7,0.7l1,3.7
		l6.9-1.9l-1-3.7c1.8-1,3.6-2.4,5.1-3.9l3.2,1.9l3.8-6.7l-3.2-1.6C130.9,25.2,131.2,22.9,131,20.3z M115.6,32.9
		c-6.1,1.7-12.4-1.9-14-8c-1.7-6.1,1.9-12.4,8-14c6.1-1.7,12.4,1.9,14,8C125.3,24.9,121.7,31.2,115.6,32.9z"/>
	<path style="opacity:0.3;fill:#2347F7;stroke:#FFFFFF;stroke-miterlimit:10;" d="M131,20.3l3.1-0.8l-2-7.3l-3.6,1
		c-1-1.8-2.2-3.3-3.5-4.4l1.8-3.4l-6.7-3.9l-1.8,3.2c-2-0.6-4.3-1-6.4-0.9L111,0.5l-6.9,1.9l0.9,3.2c-2.8,1.2-4,2.4-5.4,4l-3.4-1.8
		l-3.9,6.7l3.3,2.2c-0.5,1.7-0.9,3.5-0.8,5.6l-3.9,1.1l2,7.3l3.4-0.9c1,2.3,2.5,4.2,4.4,5.8l-1.9,3.1l6.7,3.8l2.2-3.4
		c2,0.6,3.7,1.1,6.7,0.7l1,3.7l6.9-1.9l-1-3.7c1.8-1,3.6-2.4,5.1-3.9l3.2,1.9l3.8-6.7l-3.2-1.6C130.9,25.2,131.2,22.9,131,20.3z
		 M115.6,32.9c-6.1,1.7-12.4-1.9-14-8c-1.7-6.1,1.9-12.4,8-14c6.1-1.7,12.4,1.9,14,8C125.3,24.9,121.7,31.2,115.6,32.9z"/>
</g>
<line style="fill:none;stroke:#2347F7;stroke-miterlimit:10;" x1="37.5" y1="44.2" x2="89.5" y2="44.2"/>
<path style="opacity:0.3;fill:#2347F7;stroke:#FFFFFF;stroke-miterlimit:10;" d="M106.9,61.4H39.6c-1.3,0-2.4-1.1-2.4-2.4v-4.8
	c0-1.3,1.1-2.4,2.4-2.4h67.3c1.3,0,2.4,1.1,2.4,2.4V59C109.3,60.3,108.2,61.4,106.9,61.4z"/>
</svg>
