<?xml version="1.0" encoding="utf-8"?>
<!-- Generator: Adobe Illustrator 20.1.0, SVG Export Plug-In . SVG Version: 6.00 Build 0)  -->
<svg version="1.1" id="Warstwa_1" xmlns="http://www.w3.org/2000/svg" xmlns:xlink="http://www.w3.org/1999/xlink" x="0px" y="0px"
	 viewBox="0 0 122.7 32.6" style="enable-background:new 0 0 122.7 32.6;" xml:space="preserve">
<g>
	<path style="fill:#FFFFFF;" d="M55.5,26.6h9.9V30H51V7.7h4.5V26.6z"/>
	<path style="fill:#FFFFFF;" d="M79.4,27.6c-0.5,0.9-1.2,1.5-1.9,2c-0.8,0.5-1.7,0.7-2.7,0.7c-1.7,0-3.1-0.6-4.1-1.7
		s-1.5-2.9-1.5-5.2v-10h4.5v10.1c0,1.2,0.2,2.1,0.6,2.6c0.4,0.5,1,0.8,1.8,0.8c0.7,0,1.3-0.1,1.8-0.3c0.5-0.2,0.9-0.6,1.3-1V13.5
		h4.5V30h-3.8L79.4,27.6z"/>
	<path style="fill:#FFFFFF;" d="M93,13.5l0.2,2.4c0.6-0.8,1.2-1.5,2-2c0.8-0.5,1.7-0.7,2.7-0.7c1.7,0,3,0.5,3.9,1.6s1.4,2.7,1.4,5
		V30h-4.5V19.7c0-1.1-0.2-1.9-0.7-2.4c-0.4-0.5-1.1-0.7-2-0.7c-0.6,0-1.1,0.1-1.6,0.4c-0.5,0.2-0.9,0.6-1.2,1V30h-4.5V13.5H93z"/>
	<path style="fill:#FFFFFF;" d="M118.2,30c-0.2-0.4-0.3-0.8-0.4-1.2c-0.1-0.4-0.2-0.8-0.3-1.3c-0.5,0.8-1.1,1.5-1.8,2
		s-1.6,0.8-2.7,0.8c-1.7,0-3.1-0.4-4-1.3c-0.9-0.9-1.4-2.1-1.4-3.7c0-1.6,0.6-2.9,1.9-3.8s3.1-1.3,5.5-1.3h2.5v-1.3
		c0-0.8-0.2-1.4-0.6-1.9s-1-0.7-1.9-0.7c-0.7,0-1.3,0.2-1.7,0.5s-0.6,0.8-0.6,1.5l-4.3,0l0-0.1c-0.1-1.4,0.5-2.6,1.8-3.6
		c1.3-1,3-1.5,5.1-1.5c2,0,3.6,0.5,4.8,1.5c1.2,1,1.9,2.4,1.9,4.3v6.9c0,0.8,0.1,1.5,0.2,2.2c0.1,0.7,0.3,1.4,0.6,2H118.2z
		 M114.1,27c0.8,0,1.5-0.2,2.1-0.6c0.6-0.4,1-0.8,1.2-1.3v-2.3H115c-1,0-1.7,0.2-2.2,0.7c-0.5,0.5-0.7,1.1-0.7,1.7
		c0,0.6,0.2,1,0.6,1.3C113,26.9,113.5,27,114.1,27z"/>
</g>
<path style="fill:#4CA9FF;" d="M24.5,0c1,2.2,1.5,4.6,1.5,7.1c0,9.6-7.8,17.4-17.4,17.4c-3.1,0-6.1-0.8-8.6-2.3
	c2.7,6.1,8.8,10.3,15.9,10.3c9.6,0,17.4-7.8,17.4-17.4C33.3,8.6,29.8,3,24.5,0z"/>
</svg>
