<?xml version="1.0" encoding="utf-8"?>
<!-- Generator: Adobe Illustrator 20.1.0, SVG Export Plug-In . SVG Version: 6.00 Build 0)  -->
<svg version="1.1" id="Warstwa_1" xmlns="http://www.w3.org/2000/svg" xmlns:xlink="http://www.w3.org/1999/xlink" x="0px" y="0px"
	 viewBox="0 0 105 100.9" style="enable-background:new 0 0 105 100.9;" xml:space="preserve">
<g>
	<g>
		<polyline style="fill:none;stroke:#3A54FC;stroke-linecap:round;stroke-linejoin:round;stroke-miterlimit:10;" points="53,24.3 
			55.1,15 104.5,26.9 89.5,93.2 78.4,90.6 		"/>
		<path style="fill:none;stroke:#3A54FC;stroke-linecap:round;stroke-linejoin:round;stroke-miterlimit:10;" d="M59.2,64
			c12,9.6,19.2,26.6,19.2,26.6l-15.6-3.7"/>
		<path style="opacity:0.3;fill:#3A54FC;" d="M78.4,90.6c0,0-2.1-4.9-5.8-10.9c0,0,7.4-5.7,21-4.2l-4,17.8L78.4,90.6z"/>
		<path style="fill:none;stroke:#3A54FC;stroke-linecap:round;stroke-linejoin:round;stroke-miterlimit:10;" d="M78.4,90.6
			c0,0-2.1-4.9-5.8-10.9c0,0,7.4-5.7,21-4.2l-4,17.8L78.4,90.6z"/>
		<path style="opacity:0.3;fill:#3A54FC;" d="M92.1,41c-0.8,3.7-4.4,6-8,5.2c-3.6-0.9-5.8-4.6-5-8.3c0.8-3.7,4.4-6,8-5.2
			C90.7,33.6,92.9,37.3,92.1,41z"/>
		<path style="fill:none;stroke:#3A54FC;stroke-linecap:round;stroke-linejoin:round;stroke-miterlimit:10;" d="M92.1,41
			c-0.8,3.7-4.4,6-8,5.2c-3.6-0.9-5.8-4.6-5-8.3c0.8-3.7,4.4-6,8-5.2C90.7,33.6,92.9,37.3,92.1,41z"/>
	</g>
	<polygon style="fill:none;stroke:#3A54FC;stroke-linecap:round;stroke-linejoin:round;stroke-miterlimit:10;" points="63.5,91.7 
		11,100.4 0.5,32.5 53,23.8 	"/>
	<g>
		
			<line style="fill:none;stroke:#3A54FC;stroke-linecap:round;stroke-linejoin:round;stroke-miterlimit:10;" x1="12.3" y1="0.5" x2="12.3" y2="8.9"/>
		
			<line style="fill:none;stroke:#3A54FC;stroke-linecap:round;stroke-linejoin:round;stroke-miterlimit:10;" x1="16.9" y1="4.7" x2="7.6" y2="4.7"/>
	</g>
	<g>
		
			<line style="fill:none;stroke:#3A54FC;stroke-linecap:round;stroke-linejoin:round;stroke-miterlimit:10;" x1="33.5" y1="9" x2="33.5" y2="14.6"/>
		
			<line style="fill:none;stroke:#3A54FC;stroke-linecap:round;stroke-linejoin:round;stroke-miterlimit:10;" x1="36.3" y1="11.8" x2="30.7" y2="11.8"/>
	</g>
	<g>
		<path style="fill:none;stroke:#3A54FC;stroke-linecap:round;stroke-linejoin:round;stroke-miterlimit:10;" d="M30.4,49
			c-0.7,1.1-1.4,3.1-1.4,6l1.2,33.9c0,1.1,0.6,2.1,1.3,2.1h0.4c0.7,0,1.3-0.9,1.3-2.1L34.4,55c0-2.8-0.7-4.8-1.4-6H30.4z"/>
		<path style="opacity:0.3;fill:#3A54FC;" d="M28.4,44.6c0,2.4,1.5,4.4,3.3,4.4c1.8,0,4-2.1,3.3-4.4c-1.3-4.1-0.6-7.4-0.6-7.4
			S28.4,42.2,28.4,44.6z"/>
		<path style="fill:none;stroke:#3A54FC;stroke-linecap:round;stroke-linejoin:round;stroke-miterlimit:10;" d="M28.4,44.6
			c0,2.4,1.5,4.4,3.3,4.4c1.8,0,4-2.1,3.3-4.4c-1.3-4.1-0.6-7.4-0.6-7.4S28.4,42.2,28.4,44.6z"/>
	</g>
	<polygon style="opacity:0.3;fill:#3A54FC;" points="34.2,59.4 29.1,59.4 29,56.3 34.3,56.3 	"/>
	<polygon style="fill:none;stroke:#3A54FC;stroke-linecap:round;stroke-linejoin:round;stroke-miterlimit:10;" points="34.2,59.4 
		29.1,59.4 29,56.3 34.3,56.3 	"/>
</g>
</svg>
