<?xml version="1.0" encoding="utf-8"?>
<!-- Generator: Adobe Illustrator 20.1.0, SVG Export Plug-In . SVG Version: 6.00 Build 0)  -->
<svg version="1.1" id="Warstwa_1" xmlns="http://www.w3.org/2000/svg" xmlns:xlink="http://www.w3.org/1999/xlink" x="0px" y="0px"
	 viewBox="0 0 125.5 97.5" style="enable-background:new 0 0 125.5 97.5;" xml:space="preserve">
<g>
	<path style="fill:none;stroke:#3A54FC;stroke-linecap:round;stroke-linejoin:round;stroke-miterlimit:10;" d="M108.7,34.3v32.4
		c0,5.9-4.8,10.7-10.7,10.7H30.6c-5.9,0-10.7-4.8-10.7-10.7V14.2"/>
	
		<line style="fill:none;stroke:#3A54FC;stroke-linecap:round;stroke-linejoin:round;stroke-miterlimit:10;" x1="108.7" y1="14.2" x2="108.7" y2="24.7"/>
	<path style="opacity:0.3;fill:#3A54FC;" d="M111.6,4H76.1c0-1-1.4-3-3.1-3H55.1c-1.7,0-3,2-3.1,3H16.5c-2.3,0-4.7,1.2-4.7,3.4v1.1
		c0,2.2,2.5,4.5,4.7,4.5h95c2.3,0,3.2-2.3,3.2-4.5V7.4C114.8,5.2,113.8,4,111.6,4z M71.2,8h-14c-1.1,0-2.1-0.9-2.1-2
		c0-1.1,0.9-2,2.1-2h14c1.1,0,2.1,0.9,2.1,2C73.3,7.1,72.3,8,71.2,8z"/>
	<path style="fill:none;stroke:#3A54FC;stroke-linecap:round;stroke-linejoin:round;stroke-miterlimit:10;" d="M111.6,3.5H76.1
		c0-1-1.4-3-3.1-3H55.1c-1.7,0-3,2-3.1,3H16.5c-2.3,0-4.2,1.8-4.2,4.1v1.1c0,2.3,2,4.8,4.2,4.8h95c2.3,0,3.7-2.5,3.7-4.8V7.6
		C115.3,5.3,113.8,3.5,111.6,3.5z"/>
	<path style="fill:none;stroke:#3A54FC;stroke-linecap:round;stroke-linejoin:round;stroke-miterlimit:10;" d="M71.2,7.8h-14
		c-1.1,0-2.1-0.9-2.1-2.1v0c0-1.1,0.9-2.1,2.1-2.1h14c1.1,0,2.1,0.9,2.1,2.1v0C73.3,6.9,72.3,7.8,71.2,7.8z"/>
	<g>
		
			<line style="fill:none;stroke:#3A54FC;stroke-linecap:round;stroke-linejoin:round;stroke-miterlimit:10;" x1="5.2" y1="24.8" x2="5.2" y2="34.2"/>
		
			<line style="fill:none;stroke:#3A54FC;stroke-linecap:round;stroke-linejoin:round;stroke-miterlimit:10;" x1="0.5" y1="29.5" x2="9.9" y2="29.5"/>
	</g>
	<g>
		
			<line style="fill:none;stroke:#3A54FC;stroke-linecap:round;stroke-linejoin:round;stroke-miterlimit:10;" x1="38.8" y1="37.7" x2="38.8" y2="43.3"/>
		
			<line style="fill:none;stroke:#3A54FC;stroke-linecap:round;stroke-linejoin:round;stroke-miterlimit:10;" x1="36" y1="40.5" x2="41.6" y2="40.5"/>
	</g>
	<g>
		
			<line style="fill:none;stroke:#3A54FC;stroke-linecap:round;stroke-linejoin:round;stroke-miterlimit:10;" x1="88.1" y1="26.7" x2="88.1" y2="32.3"/>
		
			<line style="fill:none;stroke:#3A54FC;stroke-linecap:round;stroke-linejoin:round;stroke-miterlimit:10;" x1="90.9" y1="29.5" x2="85.3" y2="29.5"/>
	</g>
	<g>
		
			<line style="fill:none;stroke:#3A54FC;stroke-linecap:round;stroke-linejoin:round;stroke-miterlimit:10;" x1="120.4" y1="44.7" x2="120.4" y2="54"/>
		
			<line style="fill:none;stroke:#3A54FC;stroke-linecap:round;stroke-linejoin:round;stroke-miterlimit:10;" x1="125" y1="49.3" x2="115.7" y2="49.3"/>
	</g>
	
		<line style="fill:none;stroke:#3A54FC;stroke-linecap:round;stroke-linejoin:round;stroke-miterlimit:10;" x1="64.3" y1="77.4" x2="64.3" y2="90.3"/>
	
		<circle style="fill:none;stroke:#3A54FC;stroke-linecap:round;stroke-linejoin:round;stroke-miterlimit:10;" cx="64.3" cy="93.7" r="3.3"/>
	<g>
		<path style="fill:none;stroke:#3A54FC;stroke-linecap:round;stroke-linejoin:round;stroke-miterlimit:10;" d="M109.5,29.5"/>
		
			<line style="fill:none;stroke:#3A54FC;stroke-linecap:round;stroke-linejoin:round;stroke-miterlimit:10;" x1="85.4" y1="51.7" x2="105.9" y2="32.8"/>
		
			<line style="fill:none;stroke:#3A54FC;stroke-linecap:round;stroke-linejoin:round;stroke-miterlimit:10;" x1="68.2" y1="40.4" x2="78.3" y2="51.4"/>
		
			<line style="fill:none;stroke:#3A54FC;stroke-linecap:round;stroke-linejoin:round;stroke-miterlimit:10;" x1="40.6" y1="58.8" x2="61.2" y2="39.8"/>
		<g>
			
				<ellipse transform="matrix(0.993 -0.1177 0.1177 0.993 -2.7151 13.0989)" style="opacity:0.3;fill:#3A54FC;" cx="109.5" cy="29.5" rx="4.9" ry="4.9"/>
			
				<ellipse transform="matrix(0.993 -0.1177 0.1177 0.993 -2.7151 13.0989)" style="fill:none;stroke:#3A54FC;stroke-linecap:round;stroke-linejoin:round;stroke-miterlimit:10;" cx="109.5" cy="29.5" rx="4.9" ry="4.9"/>
		</g>
		<g>
			
				<ellipse transform="matrix(0.993 -0.1177 0.1177 0.993 -5.8921 10.0016)" style="opacity:0.3;fill:#3A54FC;" cx="81.7" cy="54.9" rx="4.9" ry="4.9"/>
			
				<ellipse transform="matrix(0.993 -0.1177 0.1177 0.993 -5.8921 10.0016)" style="fill:none;stroke:#3A54FC;stroke-linecap:round;stroke-linejoin:round;stroke-miterlimit:10;" cx="81.7" cy="54.9" rx="4.9" ry="4.9"/>
		</g>
		<g>
			
				<ellipse transform="matrix(0.993 -0.1177 0.1177 0.993 -3.8752 7.9054)" style="opacity:0.3;fill:#3A54FC;" cx="65" cy="36.8" rx="4.9" ry="4.9"/>
			
				<ellipse transform="matrix(0.993 -0.1177 0.1177 0.993 -3.8752 7.9054)" style="fill:none;stroke:#3A54FC;stroke-linecap:round;stroke-linejoin:round;stroke-miterlimit:10;" cx="65" cy="36.8" rx="4.9" ry="4.9"/>
		</g>
		<g>
			
				<ellipse transform="matrix(0.993 -0.1177 0.1177 0.993 -7.0587 4.7876)" style="opacity:0.3;fill:#3A54FC;" cx="37" cy="62.1" rx="4.9" ry="4.9"/>
			
				<ellipse transform="matrix(0.993 -0.1177 0.1177 0.993 -7.0587 4.7876)" style="fill:none;stroke:#3A54FC;stroke-linecap:round;stroke-linejoin:round;stroke-miterlimit:10;" cx="37" cy="62.1" rx="4.9" ry="4.9"/>
		</g>
	</g>
	<path style="fill:none;stroke:#3A54FC;stroke-linecap:round;stroke-linejoin:round;stroke-miterlimit:10;" d="M105.9,25.9"/>
	<rect x="19.9" y="13.5" style="opacity:0.3;fill:#3A54FC;" width="88.8" height="5.9"/>
</g>
</svg>
